<?xml version="1.0" encoding="utf-8"?>
<!-- Generator: Adobe Illustrator 17.0.0, SVG Export Plug-In . SVG Version: 6.00 Build 0)  -->
<!DOCTYPE svg PUBLIC "-//W3C//DTD SVG 1.1//EN" "http://www.w3.org/Graphics/SVG/1.1/DTD/svg11.dtd">
<svg version="1.1" id="Layer_1" xmlns="http://www.w3.org/2000/svg" xmlns:xlink="http://www.w3.org/1999/xlink" x="0px" y="0px"
	 width="589.253px" height="123.167px" viewBox="8.262 45.373 589.253 123.167"
	 enable-background="new 8.262 45.373 589.253 123.167" xml:space="preserve">
<g>
	<path fill="#0078AE" d="M76.139,110.947v-2.842c-3.642-3.506-11.71-11.099-15.185-14.439h-2.317l0.003-4.363l0.98,0.023
		L59.59,48.79H8.262l69.817,106.611c0-9.73,0.062-39.403,0.062-44.455L76.139,110.947L76.139,110.947z"/>
	<path fill="#0078AE" d="M89.922,110.828l-0.042-3.331L76.496,93.465l-3.083-0.048l-0.044-4.434h1.275l0.038-40.352H63.783
		c0,5.08-0.095,40.401-0.095,40.401h1.837l-0.017,4.41l14.51,13.551l3.665,0.016l0.003,3.819h-1.752l-0.07,50.232l4.924,7.48
		l4.89-7.793c0-7.655,0.062-43.075,0.062-49.919C91.74,110.828,89.922,110.828,89.922,110.828z"/>
	<path fill="#0078AE" d="M105.341,110.828l-0.037-4.259L93.67,93.465l-3.131-0.048l-0.024-4.365h1.399l0.033-40.42h-12.51
		c0,4.434,0.077,32.272,0.077,40.248l2.319,0.149l0.03,4.332l12.423,13.209h3.638l-0.046,4.227l-1.923,0.032l0.168,43.165
		l11.071-17.009c0-6.683,0.022-20.183,0.022-26.156L105.341,110.828L105.341,110.828z"/>
	
		<linearGradient id="SVGID_1_" gradientUnits="userSpaceOnUse" x1="131.5675" y1="86.658" x2="131.5675" y2="168.369" gradientTransform="matrix(1 0 0 -1 0 217)">
		<stop  offset="0.0165" style="stop-color:#FFFFFF"/>
		<stop  offset="0.0195" style="stop-color:#FFFCF7"/>
		<stop  offset="0.0534" style="stop-color:#FFEDC3"/>
		<stop  offset="0.0844" style="stop-color:#FFE29C"/>
		<stop  offset="0.1115" style="stop-color:#FFDB80"/>
		<stop  offset="0.1338" style="stop-color:#FFD66F"/>
		<stop  offset="0.1484" style="stop-color:#FFD568"/>
		<stop  offset="0.1519" style="stop-color:#FFD568"/>
		<stop  offset="0.3297" style="stop-color:#FFD568"/>
		<stop  offset="0.3659" style="stop-color:#FFCF67"/>
		<stop  offset="0.4608" style="stop-color:#FEC365"/>
		<stop  offset="0.533" style="stop-color:#FDBE64"/>
		<stop  offset="0.5689" style="stop-color:#FCB459"/>
		<stop  offset="0.6646" style="stop-color:#F99D40"/>
		<stop  offset="0.7582" style="stop-color:#F78D30"/>
		<stop  offset="0.8476" style="stop-color:#F58427"/>
		<stop  offset="0.9286" style="stop-color:#F58025"/>
	</linearGradient>
	<path fill="url(#SVGID_1_)" d="M111.52,130.342l-0.18-19.514h2.015v-4.259h-3.123L98.657,93.404l-0.062-4.372l-2.565,0.079
		c0-8.231-0.02-36.132-0.02-40.48h71.115L111.52,130.342z"/>
	<g>
		<path fill="#0078AE" d="M178.589,52.382c-0.065-2.115-0.163-4.237-0.293-6.369c0.553,0.066,1.156,0.123,1.808,0.172
			c0.651,0.049,1.384,0.074,2.198,0.074c1.14,0,2.321-0.041,3.542-0.123c1.222-0.082,2.418-0.123,3.591-0.123
			c2.312,0,4.12,0.172,5.423,0.517c1.302,0.344,2.328,0.844,3.078,1.5c1.042,0.853,1.808,1.803,2.296,2.852
			c0.488,1.05,0.733,2.312,0.733,3.787c0,1.869-0.31,3.476-0.928,4.819c-0.619,1.345-1.49,2.434-2.614,3.271
			c-1.124,0.836-2.451,1.451-3.982,1.844c-1.531,0.393-3.208,0.59-5.032,0.59h-2.491c0,2.459,0.024,4.91,0.073,7.353
			s0.154,4.861,0.317,7.253c-0.554-0.066-1.156-0.098-1.808-0.098s-1.385,0-2.199,0c-0.814,0-1.547,0-2.198,0
			c-0.652,0-1.254,0.032-1.808,0.098c0.13-2.032,0.228-4.106,0.293-6.221s0.098-4.532,0.098-7.254v-6.688
			C178.687,56.916,178.654,54.497,178.589,52.382z M192.83,52.309c-0.277-0.852-0.652-1.532-1.124-2.041
			c-0.473-0.508-1.026-0.876-1.661-1.106c-0.635-0.229-1.294-0.344-1.979-0.344h-1.124c-0.164,0-0.326,0-0.489,0
			s-0.31,0.017-0.439,0.049c-0.033,2.36-0.058,4.68-0.073,6.958c-0.017,2.279-0.024,4.566-0.024,6.861
			c0.813,0,1.652-0.082,2.516-0.246c0.863-0.164,1.653-0.5,2.37-1.008c0.716-0.508,1.302-1.237,1.759-2.188
			c0.456-0.95,0.684-2.213,0.684-3.787C193.246,54.21,193.106,53.162,192.83,52.309z"/>
		<path fill="#0078AE" d="M208.83,52.382c-0.065-2.115-0.164-4.237-0.293-6.369c0.553,0.066,1.156,0.123,1.808,0.172
			c0.651,0.049,1.384,0.074,2.198,0.074s1.547-0.024,2.199-0.074c0.651-0.049,1.253-0.106,1.808-0.172
			c-0.131,2.132-0.229,4.254-0.293,6.369c-0.065,2.115-0.098,4.533-0.098,7.254v6.688c0,2.722,0.032,5.139,0.098,7.254
			c0.065,2.114,0.163,4.188,0.293,6.221c-0.554-0.066-1.157-0.098-1.808-0.098c-0.652,0-1.385,0-2.199,0c-0.814,0-1.547,0-2.198,0
			c-0.652,0-1.254,0.032-1.808,0.098c0.129-2.032,0.228-4.106,0.293-6.221s0.098-4.532,0.098-7.254v-6.688
			C208.928,56.916,208.895,54.497,208.83,52.382z"/>
		<path fill="#0078AE" d="M233.184,51.423c-0.017-0.787-0.057-1.36-0.122-1.721c-0.488,0-1.091,0.017-1.808,0.049
			c-0.717,0.033-1.482,0.074-2.296,0.123c-0.814,0.049-1.645,0.115-2.492,0.196c-0.848,0.083-1.629,0.172-2.345,0.271
			c0.065-0.36,0.122-0.721,0.171-1.082c0.049-0.36,0.073-0.721,0.073-1.082c0-0.36-0.024-0.721-0.073-1.082
			c-0.049-0.36-0.106-0.721-0.171-1.082c1.107,0.033,2.108,0.066,3.005,0.099c0.895,0.033,1.808,0.058,2.736,0.074
			c0.928,0.017,1.937,0.033,3.029,0.049c1.091,0.017,2.401,0.024,3.933,0.024c1.531,0,2.841-0.008,3.933-0.024
			c1.091-0.017,2.092-0.033,3.004-0.049s1.799-0.041,2.663-0.074c0.863-0.032,1.799-0.065,2.81-0.099
			c-0.066,0.361-0.123,0.722-0.171,1.082c-0.049,0.361-0.073,0.722-0.073,1.082c0,0.361,0.024,0.722,0.073,1.082
			c0.049,0.361,0.105,0.721,0.171,1.082c-0.652-0.098-1.385-0.188-2.199-0.271c-0.814-0.081-1.621-0.147-2.418-0.196
			c-0.798-0.049-1.556-0.09-2.271-0.123c-0.717-0.032-1.319-0.049-1.808-0.049c-0.033,0.165-0.058,0.394-0.073,0.688
			c-0.017,0.295-0.024,0.639-0.024,1.033v2.606v12.295c0,2.722,0.032,5.139,0.098,7.254c0.065,2.114,0.163,4.188,0.293,6.221
			c-0.554-0.066-1.156-0.098-1.808-0.098s-1.385,0-2.199,0c-0.814,0-1.547,0-2.198,0c-0.652,0-1.254,0.032-1.808,0.098
			c0.13-2.032,0.228-4.106,0.293-6.221s0.098-4.532,0.098-7.254V54.03C233.208,53.08,233.2,52.21,233.184,51.423z"/>
		<path fill="#0078AE" d="M262.79,51.423c-0.017-0.787-0.057-1.36-0.122-1.721c-0.488,0-1.091,0.017-1.808,0.049
			c-0.717,0.033-1.482,0.074-2.296,0.123s-1.645,0.115-2.492,0.196c-0.848,0.083-1.629,0.172-2.345,0.271
			c0.065-0.36,0.122-0.721,0.171-1.082c0.049-0.36,0.073-0.721,0.073-1.082c0-0.36-0.024-0.721-0.073-1.082
			c-0.049-0.36-0.106-0.721-0.171-1.082c1.107,0.033,2.108,0.066,3.005,0.099c0.895,0.033,1.808,0.058,2.736,0.074
			c0.928,0.017,1.937,0.033,3.029,0.049c1.091,0.017,2.401,0.024,3.933,0.024c1.531,0,2.841-0.008,3.933-0.024
			c1.091-0.017,2.092-0.033,3.004-0.049s1.799-0.041,2.663-0.074c0.863-0.032,1.799-0.065,2.81-0.099
			c-0.066,0.361-0.123,0.722-0.171,1.082c-0.049,0.361-0.073,0.722-0.073,1.082c0,0.361,0.024,0.722,0.073,1.082
			c0.049,0.361,0.105,0.721,0.171,1.082c-0.652-0.098-1.385-0.188-2.199-0.271c-0.814-0.081-1.621-0.147-2.418-0.196
			c-0.798-0.049-1.556-0.09-2.271-0.123c-0.717-0.032-1.319-0.049-1.808-0.049c-0.033,0.165-0.058,0.394-0.073,0.688
			c-0.017,0.295-0.024,0.639-0.024,1.033v2.606v12.295c0,2.722,0.032,5.139,0.098,7.254c0.065,2.114,0.163,4.188,0.293,6.221
			c-0.554-0.066-1.156-0.098-1.808-0.098s-1.385,0-2.199,0s-1.547,0-2.198,0c-0.652,0-1.254,0.032-1.808,0.098
			c0.13-2.032,0.228-4.106,0.293-6.221s0.098-4.532,0.098-7.254V54.03C262.814,53.08,262.806,52.21,262.79,51.423z"/>
		<path fill="#0078AE" d="M295.157,48.423c-1.499,0-2.72,0.443-3.665,1.328s-1.417,1.918-1.417,3.098
			c0,1.213,0.366,2.206,1.099,2.975c0.733,0.771,1.653,1.468,2.76,2.09c1.107,0.623,2.296,1.222,3.566,1.795
			c1.271,0.574,2.459,1.279,3.566,2.115c1.107,0.836,2.027,1.853,2.76,3.049c0.733,1.196,1.1,2.729,1.1,4.598
			c0,1.64-0.31,3.14-0.929,4.5c-0.619,1.361-1.498,2.525-2.638,3.492c-1.141,0.968-2.5,1.705-4.08,2.213
			c-1.58,0.508-3.347,0.762-5.301,0.762c-1.759,0-3.331-0.189-4.714-0.565c-1.385-0.377-2.436-0.844-3.151-1.402
			c0.325-1.147,0.603-2.196,0.831-3.147c0.228-0.951,0.423-1.983,0.586-3.098h0.928c0.129,0.722,0.374,1.401,0.733,2.041
			c0.358,0.639,0.813,1.205,1.368,1.696c0.553,0.492,1.221,0.878,2.003,1.156c0.782,0.279,1.661,0.418,2.638,0.418
			c1.955,0,3.396-0.492,4.324-1.475s1.393-2.164,1.393-3.541c0-1.246-0.359-2.262-1.075-3.049c-0.717-0.787-1.612-1.483-2.687-2.09
			c-1.075-0.606-2.248-1.196-3.518-1.771c-1.271-0.573-2.443-1.27-3.518-2.09c-1.075-0.819-1.971-1.827-2.687-3.024
			c-0.717-1.197-1.075-2.729-1.075-4.598c0-1.705,0.301-3.213,0.904-4.524s1.409-2.41,2.418-3.295s2.174-1.557,3.493-2.016
			s2.711-0.688,4.177-0.688c1.759,0,3.297,0.213,4.617,0.639c1.319,0.427,2.45,1.017,3.396,1.771
			c-0.293,0.755-0.546,1.484-0.757,2.188c-0.212,0.706-0.481,1.598-0.806,2.68h-0.733C300.025,49.833,298.055,48.423,295.157,48.423
			z"/>
		<path fill="#0078AE" d="M313.465,52.382c-0.072-2.115-0.184-4.237-0.33-6.369c0.555,0.066,1.156,0.123,1.809,0.172
			c0.65,0.049,1.383,0.074,2.197,0.074c1.4,0,2.867-0.041,4.398-0.123c1.529-0.082,2.996-0.123,4.396-0.123
			c1.465,0,2.801,0.147,4.006,0.443c1.205,0.295,2.248,0.746,3.127,1.352c0.879,0.607,1.555,1.394,2.027,2.361
			c0.473,0.967,0.709,2.123,0.709,3.467c0,1.345-0.279,2.5-0.834,3.467c-0.557,0.967-1.234,1.771-2.035,2.41
			c-0.801,0.64-1.668,1.14-2.6,1.5c-0.932,0.361-1.773,0.607-2.525,0.738v0.098c0.748,0.033,1.625,0.206,2.633,0.517
			c1.008,0.312,1.967,0.795,2.877,1.451c0.908,0.656,1.682,1.5,2.314,2.533s0.951,2.287,0.951,3.762
			c0,1.771-0.318,3.279-0.951,4.524c-0.633,1.247-1.479,2.262-2.535,3.049c-1.057,0.787-2.268,1.336-3.633,1.647
			c-1.363,0.312-2.777,0.467-4.24,0.467c-1.301,0-2.512-0.017-3.633-0.049c-1.121-0.033-2.299-0.049-3.533-0.049
			c-0.879,0-1.781,0-2.707,0s-1.666,0.032-2.219,0.098c0.146-2.032,0.258-4.106,0.33-6.221c0.074-2.115,0.109-4.532,0.109-7.254
			v-6.688C313.574,56.916,313.539,54.497,313.465,52.382z M328.305,52.333c-0.18-0.705-0.48-1.311-0.904-1.82
			c-0.424-0.508-0.961-0.917-1.611-1.229c-0.652-0.311-1.465-0.467-2.443-0.467c-0.717,0-1.213,0.008-1.49,0.025
			s-0.578,0.058-0.902,0.123c-0.066,1.213-0.115,2.443-0.146,3.688c-0.033,1.247-0.049,2.295-0.049,3.147
			c0,0.885,0.006,1.73,0.023,2.533c0.016,0.804,0.025,1.631,0.025,2.483h2.197c0.684,0,1.359-0.13,2.027-0.393
			c0.668-0.262,1.262-0.647,1.783-1.156c0.521-0.508,0.945-1.156,1.271-1.943c0.324-0.787,0.488-1.704,0.488-2.754
			C328.574,53.784,328.484,53.039,328.305,52.333z M327.377,65.316c-1.025-1.131-2.516-1.697-4.471-1.697
			c-0.457,0-0.848,0.009-1.172,0.025c-0.326,0.017-0.635,0.024-0.928,0.024c0,0.688-0.01,1.401-0.025,2.139
			c-0.018,0.738-0.023,1.615-0.023,2.631c0,0.787,0.006,1.59,0.023,2.41c0.016,0.82,0.025,1.623,0.025,2.41s0.006,1.508,0.023,2.164
			c0.016,0.656,0.025,1.197,0.025,1.623c0.455,0.033,0.879,0.058,1.27,0.074c0.391,0.017,0.863,0.025,1.416,0.025
			c0.717,0,1.4-0.147,2.053-0.443c0.65-0.295,1.221-0.729,1.709-1.303c0.49-0.573,0.881-1.27,1.174-2.09
			c0.293-0.819,0.439-1.771,0.439-2.853C328.916,68.161,328.402,66.448,327.377,65.316z"/>
		<path fill="#0078AE" d="M354.882,79.775c-1.808-0.442-3.38-1.18-4.715-2.213c-1.336-1.033-2.387-2.361-3.151-3.983
			c-0.766-1.623-1.148-3.598-1.148-5.926c0-1.311,0.008-2.483,0.024-3.516s0.025-1.992,0.025-2.877s0.007-1.737,0.024-2.558
			c0.016-0.819,0.024-1.672,0.024-2.557c0-2.656-0.018-4.803-0.049-6.442c-0.033-1.639-0.082-2.869-0.147-3.688
			c0.651,0.066,1.319,0.123,2.004,0.172c0.684,0.049,1.351,0.074,2.003,0.074c0.65,0,1.318-0.024,2.003-0.074
			c0.684-0.049,1.351-0.106,2.003-0.172c-0.326,3.181-0.521,6.14-0.586,8.877c-0.066,2.738-0.098,5.517-0.098,8.336
			c0,2.983,0.211,5.393,0.635,7.229c0.423,1.836,1.051,3.254,1.881,4.254c0.83,1,1.848,1.665,3.054,1.992
			c1.204,0.328,2.605,0.492,4.201,0.492c1.954,0,3.484-0.492,4.593-1.475c1.106-0.984,1.945-2.294,2.516-3.935
			c0.569-1.639,0.92-3.516,1.051-5.631c0.13-2.115,0.195-4.319,0.195-6.614c0-2.262-0.033-4.516-0.098-6.762
			c-0.065-2.245-0.164-4.5-0.293-6.762c0.455,0.066,0.895,0.123,1.318,0.172s0.814,0.074,1.173,0.074
			c0.423,0,0.83-0.024,1.222-0.074c0.391-0.049,0.798-0.106,1.221-0.172c-0.065,0.722-0.13,1.689-0.195,2.902
			s-0.13,2.615-0.195,4.205c-0.065,1.591-0.122,3.344-0.171,5.262s-0.073,3.943-0.073,6.073c0,5.705-1.222,9.795-3.664,12.271
			c-2.442,2.476-6.026,3.713-10.748,3.713C358.635,80.439,356.689,80.218,354.882,79.775z"/>
		<path fill="#0078AE" d="M393.502,64.308v2.017c0,2.722,0.031,5.139,0.098,7.254c0.064,2.114,0.162,4.188,0.293,6.221
			c-0.555-0.066-1.156-0.098-1.808-0.098s-1.385,0-2.199,0s-1.547,0-2.198,0s-1.254,0.032-1.808,0.098
			c0.13-2.032,0.228-4.106,0.293-6.221s0.098-4.532,0.098-7.254v-6.688c0-2.721-0.032-5.139-0.098-7.254s-0.163-4.237-0.293-6.369
			c0.554,0.066,1.156,0.123,1.808,0.172s1.384,0.074,2.198,0.074c0.88,0,1.882-0.041,3.005-0.123
			c1.124-0.082,2.517-0.123,4.178-0.123c1.237,0,2.296,0.033,3.175,0.099c0.88,0.066,1.637,0.164,2.272,0.295
			c0.635,0.131,1.188,0.304,1.661,0.517c0.472,0.213,0.919,0.467,1.343,0.762c0.978,0.721,1.751,1.615,2.321,2.68
			c0.569,1.066,0.854,2.336,0.854,3.811c0,2.394-0.651,4.345-1.954,5.853s-3.176,2.574-5.618,3.197
			c1.563,2.787,3.24,5.565,5.032,8.335c1.79,2.771,3.582,5.517,5.374,8.237c-0.75-0.066-1.482-0.098-2.199-0.098s-1.449,0-2.198,0
			s-1.49,0-2.223,0s-1.474,0.032-2.223,0.098l-8.745-15.491L393.502,64.308L393.502,64.308z M400.781,51.817
			c-0.294-0.852-0.741-1.5-1.344-1.942c-0.604-0.443-1.385-0.729-2.345-0.861c-0.962-0.13-2.109-0.197-3.444-0.197
			c-0.098,4.459-0.146,8.918-0.146,13.376c0.195,0.033,0.382,0.058,0.562,0.074c0.179,0.017,0.35,0.024,0.513,0.024
			c2.149,0,3.794-0.582,4.935-1.746c1.14-1.163,1.71-2.926,1.71-5.287C401.221,53.817,401.074,52.67,400.781,51.817z"/>
		<path fill="#0078AE" d="M442.552,49.776c-1.563-0.901-3.469-1.353-5.716-1.353c-1.499,0-2.989,0.32-4.471,0.959
			c-1.482,0.64-2.802,1.599-3.957,2.877c-1.156,1.279-2.093,2.877-2.81,4.795s-1.074,4.173-1.074,6.762
			c0,1.967,0.269,3.787,0.806,5.459c0.538,1.672,1.311,3.123,2.321,4.352c1.009,1.229,2.247,2.188,3.713,2.877
			s3.143,1.033,5.032,1.033c0.423,0,0.903-0.024,1.44-0.074c0.538-0.049,1.059-0.106,1.563-0.172
			c0.505-0.065,0.969-0.155,1.393-0.271c0.423-0.115,0.732-0.237,0.929-0.369c0.064-0.393,0.104-0.885,0.122-1.475
			c0.016-0.59,0.024-1.246,0.024-1.967c0-2.656-0.049-4.614-0.146-5.877c-0.099-1.262-0.164-2.122-0.196-2.582
			c0.325,0.066,0.758,0.123,1.295,0.172c0.537,0.049,1.311,0.074,2.32,0.074c1.173,0,2.044-0.024,2.614-0.074
			c0.569-0.049,1.018-0.106,1.344-0.172c-0.066,0.263-0.122,0.688-0.171,1.278c-0.049,0.59-0.091,1.271-0.122,2.041
			c-0.033,0.771-0.058,1.591-0.074,2.459c-0.017,0.869-0.024,1.697-0.024,2.483v1.623c0,0.82,0.008,1.582,0.024,2.287
			c0.017,0.706,0.057,1.205,0.123,1.5c-2.15,0.624-4.324,1.115-6.522,1.476s-4.373,0.541-6.522,0.541
			c-2.802,0-5.382-0.369-7.743-1.106c-2.362-0.738-4.397-1.82-6.107-3.246s-3.046-3.147-4.006-5.164
			c-0.961-2.017-1.441-4.286-1.441-6.812c0-3.114,0.514-5.844,1.539-8.188c1.026-2.344,2.443-4.295,4.251-5.853
			c1.808-1.557,3.948-2.729,6.424-3.516c2.475-0.787,5.146-1.18,8.013-1.18c2.475,0,4.616,0.254,6.424,0.762
			c1.808,0.509,3.591,1.238,5.35,2.188c-0.261,0.853-0.513,1.689-0.757,2.508c-0.244,0.82-0.448,1.656-0.61,2.508h-0.685
			C445.417,51.866,444.115,50.678,442.552,49.776z"/>
		<path fill="#0078AE" d="M477.386,63.398c-1.238-0.049-2.476-0.074-3.713-0.074c-1.238,0-2.476,0.017-3.713,0.049
			c-1.238,0.033-2.476,0.082-3.713,0.147v2.803c0,2.722,0.031,5.139,0.098,7.254c0.064,2.114,0.162,4.188,0.293,6.221
			c-0.555-0.066-1.156-0.098-1.808-0.098s-1.385,0-2.199,0s-1.547,0-2.198,0s-1.254,0.032-1.808,0.098
			c0.13-2.032,0.228-4.106,0.293-6.221s0.098-4.532,0.098-7.254v-6.688c0-2.721-0.032-5.139-0.098-7.254s-0.163-4.237-0.293-6.369
			c0.554,0.066,1.156,0.123,1.808,0.172s1.384,0.074,2.198,0.074s1.547-0.024,2.199-0.074c0.651-0.049,1.253-0.106,1.808-0.172
			c-0.164,2.132-0.269,4.238-0.317,6.32s-0.073,4.483-0.073,7.205c0.846,0.033,1.863,0.058,3.053,0.074
			c1.188,0.017,2.663,0.024,4.422,0.024s3.191-0.008,4.299-0.024c1.107-0.016,2.133-0.041,3.078-0.074
			c0-2.721-0.033-5.123-0.098-7.205s-0.163-4.188-0.293-6.32c0.553,0.066,1.155,0.123,1.808,0.172
			c0.65,0.049,1.384,0.074,2.198,0.074c0.813,0,1.547-0.024,2.198-0.074s1.254-0.106,1.808-0.172
			c-0.13,2.132-0.229,4.254-0.293,6.369c-0.065,2.115-0.098,4.533-0.098,7.254v6.688c0,2.722,0.032,5.139,0.098,7.254
			c0.064,2.114,0.163,4.188,0.293,6.221c-0.554-0.066-1.156-0.098-1.808-0.098s-1.385,0-2.198,0c-0.814,0-1.548,0-2.198,0
			c-0.652,0-1.255,0.032-1.808,0.098c0.13-2.032,0.228-4.106,0.293-6.221c0.064-2.115,0.098-4.532,0.098-7.254V63.52
			C479.86,63.489,478.623,63.448,477.386,63.398z"/>
		<path fill="#0078AE" d="M186.639,91.081c-1.383,0-2.51,0.409-3.382,1.227c-0.872,0.816-1.308,1.77-1.308,2.859
			c0,1.12,0.338,2.036,1.015,2.746c0.676,0.712,1.525,1.355,2.548,1.93c1.022,0.575,2.12,1.128,3.292,1.657
			c1.172,0.529,2.27,1.18,3.292,1.952c1.021,0.771,1.872,1.71,2.548,2.814s1.015,2.52,1.015,4.244c0,1.514-0.286,2.898-0.857,4.153
			c-0.571,1.257-1.383,2.331-2.435,3.224c-1.053,0.893-2.308,1.574-3.766,2.043c-1.458,0.469-3.089,0.703-4.893,0.703
			c-1.624,0-3.074-0.174-4.352-0.521s-2.248-0.779-2.909-1.294c0.3-1.06,0.556-2.027,0.767-2.905c0.21-0.878,0.391-1.831,0.542-2.86
			h0.856c0.12,0.666,0.346,1.294,0.677,1.884c0.331,0.591,0.751,1.112,1.263,1.566c0.511,0.454,1.127,0.811,1.849,1.067
			c0.721,0.257,1.533,0.386,2.435,0.386c1.804,0,3.134-0.454,3.991-1.362s1.285-1.997,1.285-3.269c0-1.149-0.331-2.088-0.992-2.814
			c-0.662-0.727-1.488-1.369-2.48-1.93c-0.992-0.56-2.074-1.104-3.247-1.634c-1.172-0.529-2.254-1.173-3.247-1.93
			c-0.992-0.756-1.819-1.687-2.48-2.791c-0.662-1.104-0.992-2.52-0.992-4.245c0-1.573,0.278-2.966,0.834-4.176
			c0.556-1.211,1.3-2.225,2.232-3.042c0.932-0.817,2.007-1.438,3.225-1.861s2.503-0.636,3.856-0.636
			c1.624,0,3.044,0.197,4.262,0.591c1.217,0.394,2.262,0.938,3.134,1.634c-0.271,0.696-0.504,1.37-0.699,2.021
			c-0.196,0.65-0.444,1.475-0.744,2.474h-0.676C191.133,92.383,189.314,91.081,186.639,91.081z"/>
		<path fill="#0078AE" d="M210.833,120.021c-1.668-0.409-3.119-1.09-4.352-2.043s-2.203-2.179-2.909-3.677
			c-0.707-1.498-1.06-3.321-1.06-5.471c0-1.21,0.007-2.292,0.022-3.246c0.015-0.953,0.023-1.838,0.023-2.655s0.007-1.604,0.022-2.36
			c0.015-0.756,0.022-1.544,0.022-2.36c0-2.452-0.016-4.434-0.045-5.947c-0.03-1.513-0.076-2.647-0.135-3.404
			c0.601,0.061,1.217,0.113,1.849,0.158c0.631,0.046,1.248,0.068,1.849,0.068s1.218-0.022,1.849-0.068
			c0.631-0.045,1.247-0.098,1.849-0.158c-0.301,2.936-0.481,5.667-0.541,8.193c-0.061,2.527-0.09,5.093-0.09,7.694
			c0,2.755,0.195,4.979,0.586,6.674c0.39,1.695,0.97,3.004,1.736,3.927s1.706,1.536,2.818,1.838
			c1.112,0.304,2.405,0.454,3.878,0.454c1.804,0,3.217-0.454,4.239-1.361c1.021-0.908,1.796-2.118,2.322-3.632
			c0.526-1.513,0.849-3.246,0.97-5.198c0.12-1.952,0.18-3.986,0.18-6.105c0-2.088-0.03-4.169-0.09-6.242
			c-0.061-2.072-0.151-4.153-0.271-6.241c0.42,0.061,0.826,0.113,1.217,0.158c0.391,0.046,0.751,0.068,1.083,0.068
			c0.39,0,0.767-0.022,1.127-0.068c0.361-0.045,0.736-0.098,1.127-0.158c-0.061,0.666-0.121,1.559-0.181,2.678
			c-0.061,1.12-0.12,2.414-0.18,3.882c-0.061,1.468-0.113,3.087-0.158,4.857c-0.045,1.771-0.068,3.639-0.068,5.606
			c0,5.266-1.127,9.041-3.382,11.326s-5.562,3.427-9.921,3.427C214.298,120.634,212.502,120.43,210.833,120.021z"/>
		<path fill="#0078AE" d="M238.185,94.735c-0.061-1.951-0.151-3.911-0.271-5.878c0.511,0.061,1.067,0.113,1.668,0.158
			c0.601,0.046,1.277,0.068,2.029,0.068c1.052,0,2.142-0.037,3.27-0.113c1.127-0.075,2.232-0.113,3.315-0.113
			c2.134,0,3.803,0.158,5.005,0.477c1.202,0.317,2.149,0.779,2.841,1.385c0.962,0.787,1.668,1.664,2.12,2.633
			c0.451,0.969,0.676,2.133,0.676,3.495c0,1.725-0.286,3.208-0.857,4.449c-0.571,1.241-1.375,2.247-2.413,3.019
			s-2.263,1.339-3.675,1.702c-1.414,0.363-2.961,0.545-4.645,0.545h-2.3c0,2.27,0.022,4.532,0.067,6.786
			c0.045,2.255,0.143,4.487,0.293,6.696c-0.512-0.061-1.068-0.091-1.669-0.091c-0.602,0-1.278,0-2.029,0c-0.752,0-1.428,0-2.029,0
			c-0.602,0-1.158,0.03-1.668,0.091c0.12-1.876,0.21-3.791,0.271-5.742c0.06-1.952,0.09-4.184,0.09-6.696v-6.174
			C238.275,98.92,238.245,96.688,238.185,94.735z M251.331,94.668c-0.256-0.787-0.602-1.415-1.038-1.884
			c-0.436-0.469-0.947-0.81-1.533-1.021s-1.195-0.318-1.826-0.318h-1.038c-0.151,0-0.301,0-0.451,0
			c-0.151,0-0.286,0.016-0.406,0.046c-0.03,2.179-0.053,4.32-0.067,6.423c-0.016,2.104-0.022,4.215-0.022,6.333
			c0.751,0,1.525-0.075,2.322-0.227c0.796-0.151,1.526-0.461,2.188-0.931c0.661-0.469,1.202-1.143,1.624-2.021
			c0.42-0.877,0.631-2.043,0.631-3.495C251.714,96.423,251.585,95.455,251.331,94.668z"/>
		<path fill="#0078AE" d="M264.353,94.735c-0.053-1.951-0.132-3.911-0.237-5.878c1.353,0.03,2.69,0.075,4.014,0.136
			c1.322,0.062,2.661,0.091,4.014,0.091c2.225,0,4.201-0.022,5.93-0.068c1.729-0.045,2.893-0.098,3.495-0.158
			c-0.121,0.484-0.181,1.12-0.181,1.906c0,0.484,0.015,0.862,0.045,1.135c0.029,0.272,0.074,0.575,0.135,0.908
			c-0.873-0.061-1.827-0.121-2.864-0.182s-2.045-0.121-3.021-0.182c-0.978-0.061-1.857-0.105-2.638-0.136
			c-0.782-0.03-1.338-0.046-1.668-0.046c-0.121,1.665-0.188,3.313-0.203,4.948c-0.016,1.634-0.022,3.284-0.022,4.948
			c1.954-0.03,3.72-0.075,5.299-0.137c1.578-0.06,3.225-0.136,4.938-0.227c-0.09,0.515-0.151,0.908-0.18,1.181
			c-0.03,0.271-0.045,0.56-0.045,0.862c0,0.242,0.023,0.492,0.068,0.749s0.097,0.628,0.158,1.112
			c-3.427-0.272-6.84-0.409-10.237-0.409c0,0.969-0.008,1.938-0.022,2.905c-0.016,0.97-0.023,1.938-0.023,2.905
			c0,1.968,0.045,3.859,0.135,5.675c1.714,0,3.428-0.045,5.141-0.136c1.714-0.091,3.442-0.242,5.187-0.454
			c-0.061,0.333-0.106,0.636-0.135,0.907c-0.031,0.272-0.045,0.651-0.045,1.136s0.015,0.862,0.045,1.135
			c0.029,0.272,0.074,0.499,0.135,0.681c-0.812-0.03-1.812-0.054-2.999-0.068c-1.188-0.016-2.819-0.022-4.893-0.022
			c-1.834,0-3.322,0-4.465,0c-1.112,0-2.007,0-2.683,0s-1.188,0.007-1.533,0.022c-0.346,0.015-0.639,0.038-0.879,0.068
			c0.105-1.876,0.184-3.791,0.237-5.742c0.052-1.952,0.079-4.184,0.079-6.696v-6.174C264.431,98.92,264.404,96.688,264.353,94.735z"
			/>
		<path fill="#0078AE" d="M295.232,105.744v1.861c0,2.513,0.03,4.744,0.09,6.696c0.06,1.951,0.15,3.866,0.271,5.742
			c-0.512-0.061-1.067-0.091-1.668-0.091c-0.602,0-1.278,0-2.03,0s-1.428,0-2.029,0c-0.602,0-1.158,0.03-1.668,0.091
			c0.12-1.876,0.21-3.791,0.271-5.742c0.06-1.952,0.09-4.184,0.09-6.696v-6.174c0-2.512-0.03-4.744-0.09-6.696
			c-0.061-1.951-0.151-3.911-0.271-5.878c0.511,0.061,1.067,0.113,1.668,0.158c0.601,0.046,1.278,0.068,2.029,0.068
			c0.812,0,1.736-0.037,2.774-0.113c1.037-0.075,2.322-0.113,3.855-0.113c1.142,0,2.12,0.03,2.931,0.091
			c0.812,0.061,1.511,0.151,2.097,0.272s1.097,0.279,1.533,0.477c0.436,0.197,0.849,0.431,1.24,0.703
			c0.902,0.666,1.616,1.491,2.143,2.475c0.525,0.983,0.789,2.156,0.789,3.518c0,2.21-0.602,4.011-1.804,5.402
			c-1.203,1.393-2.932,2.376-5.187,2.95c1.443,2.573,2.991,5.138,4.645,7.695c1.653,2.558,3.306,5.092,4.96,7.604
			c-0.691-0.061-1.368-0.091-2.029-0.091s-1.338,0-2.029,0s-1.375,0-2.052,0s-1.361,0.03-2.052,0.091l-8.072-14.3H295.232z
			 M301.952,94.214c-0.271-0.787-0.684-1.385-1.24-1.793c-0.557-0.409-1.278-0.674-2.165-0.795c-0.887-0.12-1.947-0.182-3.179-0.182
			c-0.09,4.116-0.135,8.232-0.135,12.348c0.18,0.031,0.353,0.054,0.519,0.068c0.165,0.016,0.323,0.022,0.474,0.022
			c1.984,0,3.502-0.537,4.555-1.611c1.052-1.074,1.579-2.701,1.579-4.88C302.358,96.061,302.223,95.001,301.952,94.214z"/>
		<path fill="#0078AE" d="M341.005,116.844c-0.18,0.651-0.301,1.294-0.36,1.929c-2.436,1.241-5.502,1.861-9.2,1.861
			c-2.615,0-4.953-0.371-7.012-1.112c-2.061-0.741-3.804-1.785-5.231-3.132c-1.429-1.347-2.519-2.943-3.27-4.789
			c-0.752-1.846-1.128-3.844-1.128-5.992c0-3.147,0.488-5.818,1.466-8.013c0.977-2.193,2.284-3.979,3.924-5.356
			c1.638-1.377,3.54-2.384,5.704-3.019c2.165-0.636,4.435-0.954,6.81-0.954c0.782,0,1.608,0.062,2.48,0.182
			c0.872,0.121,1.714,0.28,2.525,0.477c0.812,0.197,1.586,0.432,2.323,0.704c0.736,0.272,1.359,0.561,1.871,0.862
			c-0.301,0.757-0.534,1.521-0.699,2.293c-0.165,0.771-0.278,1.551-0.338,2.338h-0.632c-1.143-1.453-2.315-2.489-3.518-3.11
			c-1.202-0.619-2.615-0.931-4.238-0.931c-1.203,0-2.413,0.272-3.631,0.817s-2.322,1.378-3.314,2.497
			c-0.992,1.12-1.797,2.55-2.413,4.29s-0.924,3.82-0.924,6.241c0,2.331,0.315,4.32,0.946,5.97c0.632,1.65,1.45,2.996,2.458,4.04
			c1.007,1.045,2.149,1.81,3.428,2.293c1.277,0.484,2.562,0.727,3.855,0.727c0.722,0,1.458-0.083,2.21-0.25
			c0.751-0.166,1.488-0.393,2.21-0.681c0.722-0.287,1.405-0.643,2.052-1.067c0.646-0.423,1.21-0.892,1.691-1.407l0.586,0.363
			C341.396,115.55,341.186,116.193,341.005,116.844z"/>
		<path fill="#0078AE" d="M347.251,98.209c0.827-1.968,1.991-3.692,3.495-5.176c1.503-1.482,3.321-2.647,5.457-3.495
			c2.134-0.847,4.51-1.271,7.125-1.271c2.405,0,4.646,0.334,6.72,0.999c2.074,0.666,3.878,1.665,5.411,2.996
			c1.533,1.332,2.743,3.019,3.631,5.062c0.887,2.043,1.33,4.426,1.33,7.15c0,2.27-0.429,4.388-1.285,6.354
			c-0.856,1.968-2.045,3.686-3.562,5.153c-1.519,1.468-3.33,2.609-5.435,3.427s-4.419,1.226-6.944,1.226
			c-2.376,0-4.608-0.295-6.697-0.885c-2.09-0.59-3.908-1.544-5.457-2.86s-2.773-2.996-3.675-5.039
			c-0.902-2.042-1.354-4.486-1.354-7.331C346.011,102.279,346.424,100.176,347.251,98.209z M372.303,98.231
			c-0.481-1.559-1.15-2.883-2.007-3.973c-0.857-1.089-1.895-1.929-3.112-2.52c-1.217-0.59-2.548-0.885-3.99-0.885
			c-1.534,0-2.909,0.371-4.127,1.112c-1.218,0.742-2.248,1.748-3.089,3.019c-0.842,1.271-1.481,2.762-1.917,4.472
			s-0.653,3.534-0.653,5.47c0,2.422,0.255,4.465,0.767,6.129c0.511,1.665,1.202,3.004,2.074,4.018s1.879,1.748,3.021,2.201
			c1.143,0.454,2.345,0.682,3.607,0.682c1.354,0,2.646-0.288,3.879-0.863c1.232-0.574,2.307-1.452,3.225-2.633
			c0.916-1.18,1.652-2.678,2.209-4.494c0.557-1.815,0.835-3.964,0.835-6.446C373.024,101.553,372.783,99.79,372.303,98.231z"/>
		<path fill="#0078AE" d="M389.664,109.875c-0.241,3.39-0.481,6.78-0.722,10.169c-0.36-0.061-0.722-0.091-1.082-0.091
			c-0.361,0-0.707,0-1.037,0c-0.361,0-0.715,0-1.061,0s-0.698,0.03-1.06,0.091c0.962-5.205,1.819-10.38,2.57-15.525
			c0.752-5.145,1.443-10.365,2.075-15.661c0.33,0.061,0.638,0.113,0.924,0.158c0.286,0.046,0.594,0.068,0.925,0.068
			c0.271,0,0.556-0.022,0.857-0.068c0.3-0.045,0.615-0.098,0.946-0.158c0.812,1.815,1.661,3.662,2.548,5.538
			c0.887,1.877,1.774,3.745,2.661,5.606s1.773,3.685,2.661,5.47c0.886,1.786,1.735,3.48,2.548,5.085
			c1.804-3.39,3.6-6.938,5.389-10.646c1.788-3.707,3.495-7.392,5.118-11.054c0.752,0.151,1.398,0.227,1.939,0.227
			c0.511,0,1.143-0.075,1.895-0.227c0.3,2.603,0.623,5.401,0.97,8.397c0.345,2.996,0.683,5.925,1.015,8.784
			c0.33,2.86,0.66,5.531,0.992,8.013c0.33,2.481,0.631,4.479,0.901,5.992c-0.602-0.061-1.21-0.091-1.826-0.091s-1.226,0-1.826,0
			c-0.603,0-1.218,0-1.85,0c-0.631,0-1.263,0.03-1.894,0.091c-0.151-3.117-0.399-6.491-0.744-10.123
			c-0.347-3.632-0.699-7.233-1.06-10.805h-0.091c-1.714,3.571-3.397,7.082-5.051,10.532s-3.292,6.916-4.915,10.396
			c-0.151-0.03-0.294-0.054-0.429-0.068c-0.136-0.016-0.278-0.022-0.429-0.022s-0.293,0.007-0.429,0.022
			c-0.135,0.015-0.278,0.038-0.428,0.068c-1.624-3.389-3.24-6.779-4.849-10.169c-1.608-3.389-3.27-6.824-4.982-10.305h-0.091
			C390.265,103.051,389.904,106.486,389.664,109.875z"/>
		<path fill="#0078AE" d="M427.861,94.735c-0.061-1.951-0.15-3.911-0.271-5.878c0.511,0.061,1.066,0.113,1.669,0.158
			c0.601,0.046,1.277,0.068,2.029,0.068c1.052,0,2.142-0.037,3.27-0.113c1.127-0.075,2.231-0.113,3.314-0.113
			c2.134,0,3.803,0.158,5.006,0.477c1.202,0.317,2.148,0.779,2.841,1.385c0.962,0.787,1.669,1.664,2.119,2.633
			c0.451,0.969,0.677,2.133,0.677,3.495c0,1.725-0.286,3.208-0.856,4.449c-0.571,1.241-1.376,2.247-2.413,3.019
			s-2.263,1.339-3.676,1.702s-2.961,0.545-4.645,0.545h-2.3c0,2.27,0.022,4.532,0.067,6.786c0.045,2.255,0.143,4.487,0.293,6.696
			c-0.512-0.061-1.067-0.091-1.668-0.091c-0.603,0-1.278,0-2.029,0c-0.752,0-1.429,0-2.029,0c-0.603,0-1.158,0.03-1.669,0.091
			c0.12-1.876,0.21-3.791,0.271-5.742c0.06-1.952,0.09-4.184,0.09-6.696v-6.174C427.951,98.92,427.921,96.688,427.861,94.735z
			 M441.007,94.668c-0.256-0.787-0.602-1.415-1.037-1.884c-0.437-0.469-0.947-0.81-1.533-1.021s-1.195-0.318-1.826-0.318h-1.037
			c-0.151,0-0.301,0-0.451,0c-0.151,0-0.286,0.016-0.406,0.046c-0.03,2.179-0.053,4.32-0.067,6.423
			c-0.016,2.104-0.022,4.215-0.022,6.333c0.751,0,1.525-0.075,2.322-0.227c0.796-0.151,1.525-0.461,2.188-0.931
			c0.661-0.469,1.202-1.143,1.623-2.021c0.421-0.877,0.632-2.043,0.632-3.495C441.391,96.423,441.262,95.455,441.007,94.668z"/>
		<path fill="#0078AE" d="M462.924,120.021c-1.668-0.409-3.119-1.09-4.352-2.043s-2.203-2.179-2.909-3.677s-1.06-3.321-1.06-5.471
			c0-1.21,0.007-2.292,0.022-3.246c0.015-0.953,0.022-1.838,0.022-2.655s0.008-1.604,0.022-2.36c0.016-0.756,0.022-1.544,0.022-2.36
			c0-2.452-0.015-4.434-0.045-5.947s-0.075-2.647-0.135-3.404c0.601,0.061,1.218,0.113,1.849,0.158
			c0.632,0.046,1.247,0.068,1.849,0.068s1.218-0.022,1.85-0.068c0.631-0.045,1.247-0.098,1.849-0.158
			c-0.301,2.936-0.481,5.667-0.541,8.193c-0.061,2.527-0.09,5.093-0.09,7.694c0,2.755,0.195,4.979,0.586,6.674
			c0.391,1.695,0.97,3.004,1.736,3.927s1.706,1.536,2.818,1.838c1.112,0.304,2.405,0.454,3.879,0.454
			c1.804,0,3.216-0.454,4.238-1.361c1.022-0.908,1.797-2.118,2.323-3.632c0.525-1.513,0.849-3.246,0.969-5.198
			s0.181-3.986,0.181-6.105c0-2.088-0.03-4.169-0.09-6.242c-0.061-2.072-0.151-4.153-0.271-6.241
			c0.421,0.061,0.826,0.113,1.218,0.158c0.39,0.046,0.751,0.068,1.082,0.068c0.391,0,0.767-0.022,1.127-0.068
			c0.361-0.045,0.736-0.098,1.128-0.158c-0.061,0.666-0.121,1.559-0.181,2.678c-0.061,1.12-0.12,2.414-0.181,3.882
			s-0.112,3.087-0.157,4.857s-0.067,3.639-0.067,5.606c0,5.266-1.128,9.041-3.383,11.326s-5.562,3.427-9.921,3.427
			C466.389,120.634,464.593,120.43,462.924,120.021z"/>
		<path fill="#0078AE" d="M496.07,93.851c-0.016-0.727-0.053-1.256-0.112-1.589c-0.451,0-1.008,0.016-1.669,0.046
			c-0.662,0.03-1.368,0.067-2.119,0.113c-0.752,0.045-1.519,0.106-2.301,0.182s-1.503,0.158-2.164,0.249
			c0.06-0.332,0.112-0.665,0.157-0.998c0.046-0.333,0.068-0.666,0.068-0.999s-0.022-0.665-0.068-0.999
			c-0.045-0.332-0.098-0.665-0.157-0.998c1.021,0.03,1.946,0.061,2.773,0.091c0.826,0.03,1.668,0.053,2.525,0.067
			c0.856,0.016,1.788,0.031,2.796,0.046c1.007,0.016,2.217,0.022,3.63,0.022s2.623-0.007,3.631-0.022
			c1.007-0.015,1.932-0.03,2.773-0.046c0.841-0.015,1.661-0.037,2.458-0.067c0.796-0.03,1.66-0.061,2.593-0.091
			c-0.061,0.333-0.113,0.666-0.158,0.998c-0.045,0.334-0.067,0.666-0.067,0.999s0.022,0.666,0.067,0.999s0.098,0.666,0.158,0.998
			c-0.602-0.091-1.278-0.174-2.029-0.249c-0.752-0.075-1.496-0.137-2.232-0.182c-0.737-0.046-1.437-0.083-2.097-0.113
			c-0.662-0.03-1.218-0.046-1.669-0.046c-0.03,0.151-0.053,0.363-0.067,0.636c-0.016,0.272-0.022,0.59-0.022,0.953v2.406v11.349
			c0,2.513,0.029,4.744,0.09,6.696c0.06,1.951,0.15,3.866,0.271,5.742c-0.512-0.061-1.067-0.091-1.669-0.091s-1.277,0-2.029,0
			s-1.428,0-2.029,0s-1.157,0.03-1.668,0.091c0.119-1.876,0.21-3.791,0.271-5.742c0.06-1.952,0.09-4.184,0.09-6.696V96.257
			C496.093,95.379,496.085,94.577,496.07,93.851z"/>
		<path fill="#0078AE" d="M517.062,94.735c-0.061-1.951-0.15-3.911-0.271-5.878c0.511,0.061,1.067,0.113,1.669,0.158
			c0.601,0.046,1.277,0.068,2.029,0.068c0.751,0,1.428-0.022,2.029-0.068c0.601-0.045,1.157-0.098,1.669-0.158
			c-0.121,1.967-0.211,3.927-0.271,5.878c-0.061,1.952-0.091,4.185-0.091,6.696v6.174c0,2.513,0.03,4.744,0.091,6.696
			c0.06,1.951,0.149,3.866,0.271,5.742c-0.512-0.061-1.068-0.091-1.669-0.091c-0.602,0-1.278,0-2.029,0c-0.752,0-1.429,0-2.029,0
			c-0.602,0-1.158,0.03-1.669,0.091c0.12-1.876,0.21-3.791,0.271-5.742c0.061-1.952,0.091-4.184,0.091-6.696v-6.174
			C517.153,98.92,517.123,96.688,517.062,94.735z"/>
		<path fill="#0078AE" d="M533.433,92.625c-0.061-1.422-0.105-2.679-0.135-3.768c0.841,0.151,1.518,0.227,2.029,0.227
			s1.188-0.075,2.029-0.227c3.276,3.662,6.517,7.263,9.718,10.804c3.202,3.541,6.486,7.143,9.854,10.805v-3.95v-4.403
			c0-1.482-0.008-2.942-0.022-4.38c-0.016-1.438-0.03-2.762-0.046-3.973c-0.016-1.21-0.045-2.254-0.09-3.132
			s-0.098-1.468-0.158-1.771c0.842,0.151,1.519,0.227,2.029,0.227c0.512,0,1.188-0.075,2.03-0.227
			c-0.151,2.754-0.271,5.243-0.361,7.467c-0.09,2.225-0.165,4.321-0.226,6.288c-0.061,1.968-0.098,3.911-0.112,5.833
			c-0.016,1.922-0.022,3.972-0.022,6.151v5.447c-0.603-0.061-1.218-0.091-1.85-0.091c-0.661,0-1.248,0.03-1.759,0.091
			c-6.193-7.264-12.762-14.572-19.707-21.926c-0.03,0.878-0.053,1.755-0.067,2.633c-0.016,0.878-0.022,1.771-0.022,2.678v5.267
			c0,1.815,0.007,3.359,0.022,4.63c0.015,1.271,0.037,2.346,0.067,3.224c0.029,0.878,0.06,1.597,0.09,2.156s0.061,1.006,0.091,1.339
			c-0.361-0.061-0.722-0.091-1.083-0.091c-0.36,0-0.706,0-1.037,0c-0.691,0-1.383,0.03-2.074,0.091
			c0.06-0.242,0.136-1.104,0.226-2.588c0.09-1.482,0.188-3.291,0.293-5.425c0.105-2.133,0.195-4.448,0.271-6.945
			s0.113-4.895,0.113-7.195C533.523,95.803,533.493,94.048,533.433,92.625z"/>
		<path fill="#0078AE" d="M591.473,92.33c-1.443-0.832-3.202-1.249-5.276-1.249c-1.383,0-2.759,0.296-4.126,0.886
			c-1.369,0.59-2.586,1.476-3.653,2.655c-1.067,1.181-1.932,2.656-2.593,4.427c-0.662,1.77-0.992,3.852-0.992,6.241
			c0,1.816,0.248,3.496,0.744,5.039c0.496,1.544,1.21,2.883,2.142,4.018s2.075,2.021,3.428,2.655
			c1.353,0.636,2.901,0.954,4.645,0.954c0.391,0,0.835-0.023,1.331-0.068c0.496-0.046,0.977-0.098,1.442-0.159
			c0.466-0.061,0.895-0.143,1.286-0.249c0.39-0.106,0.676-0.22,0.856-0.341c0.06-0.363,0.098-0.817,0.112-1.362
			c0.016-0.544,0.022-1.149,0.022-1.815c0-2.451-0.045-4.26-0.135-5.425s-0.15-1.959-0.181-2.383
			c0.301,0.061,0.699,0.113,1.195,0.158c0.496,0.046,1.21,0.068,2.143,0.068c1.082,0,1.886-0.022,2.412-0.068
			c0.525-0.045,0.939-0.098,1.24-0.158c-0.061,0.242-0.112,0.635-0.158,1.18c-0.045,0.545-0.083,1.173-0.112,1.884
			c-0.03,0.712-0.053,1.469-0.067,2.271c-0.016,0.802-0.022,1.565-0.022,2.292v1.498c0,0.757,0.007,1.461,0.022,2.111
			c0.015,0.65,0.052,1.111,0.112,1.384c-1.984,0.575-3.991,1.029-6.021,1.362s-4.036,0.499-6.021,0.499
			c-2.586,0-4.968-0.34-7.147-1.021c-2.181-0.681-4.059-1.68-5.638-2.996c-1.578-1.316-2.812-2.905-3.697-4.767
			c-0.888-1.86-1.331-3.956-1.331-6.287c0-2.875,0.474-5.395,1.421-7.559c0.947-2.163,2.255-3.964,3.924-5.401
			c1.668-1.438,3.645-2.52,5.93-3.246s4.75-1.09,7.396-1.09c2.284,0,4.262,0.235,5.93,0.704c1.669,0.47,3.314,1.143,4.938,2.02
			c-0.241,0.788-0.474,1.56-0.699,2.315c-0.226,0.757-0.413,1.528-0.563,2.315h-0.632C594.118,94.259,592.916,93.162,591.473,92.33z
			"/>
		<path fill="#0078AE" d="M202.558,157.096c-0.181,0.651-0.301,1.294-0.361,1.929c-2.435,1.241-5.502,1.861-9.2,1.861
			c-2.616,0-4.954-0.371-7.013-1.112c-2.06-0.741-3.804-1.785-5.231-3.132c-1.429-1.347-2.519-2.943-3.27-4.789
			c-0.752-1.846-1.127-3.844-1.127-5.992c0-3.147,0.488-5.818,1.465-8.013c0.977-2.193,2.285-3.979,3.923-5.356
			s3.541-2.384,5.705-3.019c2.165-0.636,4.434-0.954,6.81-0.954c0.781,0,1.608,0.062,2.48,0.182c0.872,0.121,1.713,0.28,2.525,0.477
			s1.585,0.432,2.322,0.704c0.736,0.272,1.36,0.561,1.872,0.862c-0.301,0.757-0.534,1.521-0.699,2.293
			c-0.166,0.771-0.279,1.551-0.338,2.338h-0.631c-1.143-1.453-2.315-2.489-3.518-3.11c-1.203-0.619-2.616-0.931-4.239-0.931
			c-1.203,0-2.413,0.272-3.63,0.817c-1.217,0.545-2.322,1.378-3.314,2.497c-0.992,1.12-1.797,2.55-2.413,4.29
			c-0.617,1.74-0.925,3.82-0.925,6.241c0,2.331,0.316,4.32,0.947,5.97c0.631,1.65,1.45,2.996,2.458,4.04
			c1.007,1.045,2.149,1.81,3.428,2.293c1.277,0.484,2.562,0.727,3.855,0.727c0.722,0,1.458-0.083,2.21-0.25
			c0.751-0.166,1.488-0.393,2.21-0.681c0.721-0.287,1.405-0.643,2.052-1.067c0.646-0.423,1.21-0.892,1.691-1.407l0.586,0.363
			C202.948,155.802,202.738,156.445,202.558,157.096z"/>
		<path fill="#0078AE" d="M209.469,134.987c-0.053-1.951-0.132-3.911-0.237-5.878c1.353,0.03,2.69,0.075,4.014,0.136
			c1.322,0.062,2.661,0.091,4.014,0.091c2.225,0,4.201-0.022,5.93-0.068c1.729-0.045,2.893-0.098,3.495-0.158
			c-0.121,0.484-0.181,1.12-0.181,1.906c0,0.484,0.015,0.862,0.045,1.135c0.029,0.272,0.074,0.575,0.135,0.908
			c-0.873-0.061-1.827-0.121-2.864-0.182s-2.045-0.121-3.021-0.182c-0.978-0.061-1.857-0.105-2.638-0.136
			c-0.782-0.03-1.338-0.046-1.668-0.046c-0.121,1.665-0.188,3.313-0.203,4.948c-0.016,1.634-0.022,3.284-0.022,4.948
			c1.954-0.03,3.72-0.075,5.299-0.137c1.578-0.06,3.225-0.136,4.938-0.227c-0.09,0.515-0.151,0.908-0.18,1.181
			c-0.03,0.271-0.045,0.56-0.045,0.862c0,0.242,0.023,0.492,0.068,0.749s0.097,0.628,0.158,1.112
			c-3.427-0.272-6.84-0.409-10.237-0.409c0,0.969-0.008,1.938-0.022,2.905c-0.016,0.97-0.023,1.938-0.023,2.905
			c0,1.968,0.045,3.859,0.135,5.675c1.714,0,3.428-0.045,5.141-0.136c1.714-0.091,3.442-0.242,5.187-0.454
			c-0.061,0.333-0.106,0.636-0.135,0.907c-0.031,0.272-0.045,0.651-0.045,1.136s0.015,0.862,0.045,1.135
			c0.029,0.272,0.074,0.499,0.135,0.681c-0.812-0.03-1.812-0.054-2.999-0.068c-1.188-0.016-2.819-0.022-4.893-0.022
			c-1.834,0-3.322,0-4.465,0c-1.112,0-2.007,0-2.683,0s-1.188,0.007-1.533,0.022c-0.346,0.015-0.639,0.038-0.879,0.068
			c0.105-1.876,0.184-3.791,0.237-5.742c0.052-1.952,0.079-4.184,0.079-6.696v-6.174
			C209.547,139.172,209.521,136.939,209.469,134.987z"/>
		<path fill="#0078AE" d="M233.99,132.877c-0.061-1.422-0.105-2.679-0.135-3.768c0.841,0.151,1.518,0.227,2.029,0.227
			s1.188-0.075,2.03-0.227c3.276,3.662,6.516,7.263,9.718,10.804s6.486,7.143,9.854,10.805v-3.95v-4.403
			c0-1.482-0.008-2.942-0.022-4.38c-0.016-1.438-0.03-2.762-0.045-3.973c-0.016-1.21-0.045-2.254-0.09-3.132
			s-0.098-1.468-0.158-1.771c0.841,0.151,1.518,0.227,2.029,0.227s1.188-0.075,2.029-0.227c-0.151,2.754-0.271,5.243-0.361,7.467
			c-0.09,2.225-0.166,4.321-0.226,6.288c-0.061,1.968-0.098,3.911-0.113,5.833s-0.022,3.972-0.022,6.151v5.447
			c-0.602-0.061-1.217-0.091-1.849-0.091c-0.662,0-1.248,0.03-1.759,0.091c-6.194-7.264-12.763-14.572-19.708-21.926
			c-0.03,0.878-0.053,1.755-0.068,2.633s-0.022,1.771-0.022,2.678v5.267c0,1.815,0.007,3.359,0.022,4.63
			c0.015,1.271,0.038,2.346,0.068,3.224c0.029,0.878,0.06,1.597,0.09,2.156c0.029,0.56,0.06,1.006,0.09,1.339
			c-0.361-0.061-0.721-0.091-1.082-0.091s-0.707,0-1.038,0c-0.692,0-1.383,0.03-2.074,0.091c0.06-0.242,0.135-1.104,0.226-2.588
			c0.09-1.482,0.188-3.291,0.293-5.425c0.105-2.133,0.195-4.448,0.271-6.945c0.075-2.497,0.113-4.895,0.113-7.195
			C234.081,136.055,234.05,134.3,233.99,132.877z"/>
		<path fill="#0078AE" d="M275.187,134.103c-0.016-0.727-0.053-1.256-0.113-1.589c-0.451,0-1.007,0.016-1.668,0.046
			c-0.662,0.03-1.369,0.067-2.12,0.113c-0.752,0.045-1.519,0.106-2.3,0.182c-0.782,0.075-1.504,0.158-2.165,0.249
			c0.06-0.332,0.112-0.665,0.158-0.998c0.045-0.333,0.067-0.666,0.067-0.999s-0.022-0.665-0.067-0.999
			c-0.045-0.332-0.098-0.665-0.158-0.998c1.021,0.03,1.946,0.061,2.773,0.091c0.826,0.03,1.668,0.053,2.525,0.067
			c0.856,0.016,1.788,0.031,2.796,0.046c1.007,0.016,2.217,0.022,3.63,0.022s2.623-0.007,3.63-0.022
			c1.007-0.015,1.931-0.03,2.773-0.046c0.841-0.015,1.661-0.037,2.458-0.067c0.796-0.03,1.661-0.061,2.593-0.091
			c-0.061,0.333-0.113,0.666-0.158,0.998c-0.045,0.334-0.068,0.666-0.068,0.999s0.022,0.666,0.068,0.999
			c0.045,0.333,0.097,0.666,0.158,0.998c-0.602-0.091-1.278-0.174-2.029-0.249c-0.752-0.075-1.496-0.137-2.232-0.182
			c-0.737-0.046-1.436-0.083-2.097-0.113c-0.662-0.03-1.217-0.046-1.668-0.046c-0.03,0.151-0.053,0.363-0.068,0.636
			s-0.022,0.59-0.022,0.953v2.406v11.349c0,2.513,0.03,4.744,0.09,6.696c0.06,1.951,0.15,3.866,0.271,5.742
			c-0.512-0.061-1.067-0.091-1.668-0.091c-0.602,0-1.278,0-2.029,0c-0.752,0-1.428,0-2.029,0c-0.602,0-1.158,0.03-1.669,0.091
			c0.12-1.876,0.21-3.791,0.271-5.742c0.06-1.952,0.09-4.184,0.09-6.696v-11.349C275.209,135.631,275.201,134.829,275.187,134.103z"
			/>
		<path fill="#0078AE" d="M295.559,134.987c-0.053-1.951-0.132-3.911-0.237-5.878c1.353,0.03,2.69,0.075,4.014,0.136
			c1.322,0.062,2.661,0.091,4.014,0.091c2.225,0,4.201-0.022,5.931-0.068c1.728-0.045,2.893-0.098,3.494-0.158
			c-0.12,0.484-0.18,1.12-0.18,1.906c0,0.484,0.015,0.862,0.045,1.135c0.029,0.272,0.074,0.575,0.135,0.908
			c-0.872-0.061-1.826-0.121-2.863-0.182s-2.045-0.121-3.021-0.182c-0.978-0.061-1.857-0.105-2.638-0.136
			c-0.782-0.03-1.338-0.046-1.668-0.046c-0.121,1.665-0.188,3.313-0.203,4.948c-0.016,1.634-0.022,3.284-0.022,4.948
			c1.954-0.03,3.72-0.075,5.299-0.137c1.578-0.06,3.225-0.136,4.938-0.227c-0.091,0.515-0.151,0.908-0.181,1.181
			c-0.03,0.271-0.045,0.56-0.045,0.862c0,0.242,0.022,0.492,0.067,0.749s0.098,0.628,0.158,1.112
			c-3.428-0.272-6.84-0.409-10.237-0.409c0,0.969-0.008,1.938-0.022,2.905c-0.016,0.97-0.023,1.938-0.023,2.905
			c0,1.968,0.045,3.859,0.135,5.675c1.714,0,3.428-0.045,5.142-0.136s3.442-0.242,5.186-0.454c-0.061,0.333-0.105,0.636-0.135,0.907
			c-0.03,0.272-0.045,0.651-0.045,1.136s0.015,0.862,0.045,1.135c0.029,0.272,0.074,0.499,0.135,0.681
			c-0.812-0.03-1.812-0.054-2.998-0.068c-1.188-0.016-2.819-0.022-4.894-0.022c-1.834,0-3.322,0-4.465,0c-1.112,0-2.007,0-2.683,0
			s-1.188,0.007-1.533,0.022c-0.346,0.015-0.639,0.038-0.879,0.068c0.105-1.876,0.184-3.791,0.237-5.742
			c0.052-1.952,0.079-4.184,0.079-6.696v-6.174C295.638,139.172,295.611,136.939,295.559,134.987z"/>
		<path fill="#0078AE" d="M326.438,145.996v1.861c0,2.513,0.03,4.744,0.091,6.696c0.06,1.951,0.15,3.866,0.271,5.742
			c-0.512-0.061-1.067-0.091-1.669-0.091s-1.278,0-2.029,0c-0.752,0-1.428,0-2.029,0s-1.157,0.03-1.668,0.091
			c0.119-1.876,0.21-3.791,0.271-5.742c0.06-1.952,0.09-4.184,0.09-6.696v-6.174c0-2.512-0.03-4.744-0.09-6.696
			c-0.061-1.951-0.151-3.911-0.271-5.878c0.511,0.061,1.066,0.113,1.668,0.158c0.602,0.046,1.277,0.068,2.029,0.068
			c0.812,0,1.736-0.037,2.773-0.113c1.037-0.075,2.322-0.113,3.856-0.113c1.142,0,2.119,0.03,2.931,0.091s1.511,0.151,2.098,0.272
			c0.586,0.121,1.097,0.279,1.533,0.477c0.436,0.197,0.849,0.431,1.24,0.703c0.901,0.666,1.615,1.491,2.142,2.475
			c0.525,0.983,0.789,2.156,0.789,3.518c0,2.21-0.602,4.011-1.804,5.402c-1.203,1.393-2.932,2.376-5.187,2.95
			c1.443,2.573,2.991,5.138,4.646,7.695c1.653,2.558,3.307,5.092,4.961,7.604c-0.692-0.061-1.369-0.091-2.029-0.091
			c-0.662,0-1.339,0-2.029,0c-0.692,0-1.376,0-2.053,0c-0.676,0-1.36,0.03-2.052,0.091l-8.072-14.3H326.438z M333.158,134.466
			c-0.271-0.787-0.684-1.385-1.24-1.793c-0.557-0.409-1.278-0.674-2.164-0.795c-0.888-0.12-1.947-0.182-3.18-0.182
			c-0.09,4.116-0.136,8.232-0.136,12.348c0.181,0.031,0.354,0.054,0.52,0.068c0.164,0.016,0.322,0.022,0.473,0.022
			c1.984,0,3.503-0.537,4.556-1.611c1.052-1.074,1.578-2.701,1.578-4.88C333.564,136.312,333.429,135.253,333.158,134.466z"/>
	</g>
</g>
</svg>
